<svg width="157" height="25" viewBox="0 0 157 25" fill="none" xmlns="http://www.w3.org/2000/svg">
<path d="M5.15875 18.5299L3.0025 10.233H4.7525L6.02594 15.6705L7.19781 10.233H8.93219L10.065 15.6705L11.3697 10.233H13.1431L10.9556 18.5299H9.22906L8.05719 13.194L6.90094 18.5299H5.15875ZM15.3775 18.5299L13.2213 10.233H14.9713L16.2447 15.6705L17.4166 10.233H19.1509L20.2838 15.6705L21.5884 10.233H23.3619L21.1744 18.5299H19.4478L18.2759 13.194L17.1197 18.5299H15.3775ZM25.5963 18.5299L23.44 10.233H25.19L26.4634 15.6705L27.6353 10.233H29.3697L30.5025 15.6705L31.8072 10.233H33.5806L31.3931 18.5299H29.6666L28.4947 13.194L27.3384 18.5299H25.5963ZM34.0572 18.5299V16.3346H35.8619V18.5299H34.0572ZM37.6588 10.233H39.3384V11.4518C39.5676 11.0143 39.8697 10.6705 40.2447 10.4205C40.6197 10.1705 41.0233 10.0455 41.4556 10.0455C42.2317 10.0455 42.8983 10.4153 43.4556 11.1549C44.0181 11.8945 44.2994 12.944 44.2994 14.3033C44.2994 15.7304 44.0181 16.8242 43.4556 17.5846C42.8931 18.3398 42.2239 18.7174 41.4478 18.7174C41.0884 18.7174 40.7525 18.6315 40.44 18.4596C40.1327 18.2825 39.8072 17.9648 39.4634 17.5065V21.6862H37.6588V10.233ZM39.44 14.2408C39.44 15.1783 39.591 15.8684 39.8931 16.3112C40.2004 16.7539 40.5702 16.9752 41.0025 16.9752C41.414 16.9752 41.7603 16.7721 42.0416 16.3658C42.3228 15.9544 42.4634 15.2851 42.4634 14.358C42.4634 13.4778 42.3176 12.8294 42.0259 12.4127C41.7395 11.9908 41.3879 11.7799 40.9713 11.7799C40.5338 11.7799 40.1692 11.9856 39.8775 12.3971C39.5858 12.8033 39.44 13.4179 39.44 14.2408ZM45.3072 14.2643C45.3072 13.4518 45.4686 12.7122 45.7916 12.0455C46.1145 11.3789 46.5364 10.8789 47.0572 10.5455C47.578 10.2122 48.164 10.0455 48.815 10.0455C49.9088 10.0455 50.7681 10.4752 51.3931 11.3346C52.0181 12.1888 52.3306 13.1888 52.3306 14.3346C52.3306 15.1888 52.1666 15.9596 51.8384 16.6471C51.5155 17.3346 51.0884 17.8528 50.5572 18.2018C50.0311 18.5455 49.453 18.7174 48.8228 18.7174C47.8124 18.7174 46.9739 18.332 46.3072 17.5612C45.6405 16.7903 45.3072 15.6914 45.3072 14.2643ZM47.1509 14.3815C47.1509 15.22 47.315 15.8554 47.6431 16.2877C47.9713 16.7148 48.3671 16.9283 48.8306 16.9283C49.2838 16.9283 49.6718 16.7122 49.9947 16.2799C50.3176 15.8476 50.4791 15.2096 50.4791 14.3658C50.4791 13.5429 50.315 12.9153 49.9869 12.483C49.6588 12.0507 49.2655 11.8346 48.8072 11.8346C48.3541 11.8346 47.9634 12.0507 47.6353 12.483C47.3124 12.9153 47.1509 13.5481 47.1509 14.3815ZM55.4713 18.5299H53.6666V10.233H55.3384V11.4127C55.6249 10.8606 55.8801 10.4961 56.1041 10.319C56.3332 10.1367 56.5963 10.0455 56.8931 10.0455C57.3046 10.0455 57.6978 10.1836 58.0728 10.4596L57.5103 12.3737C57.2134 12.1341 56.9322 12.0143 56.6666 12.0143C56.4166 12.0143 56.1952 12.108 56.0025 12.2955C55.815 12.4778 55.6796 12.8112 55.5963 13.2955C55.5129 13.7799 55.4713 14.6705 55.4713 15.9674V18.5299ZM58.2213 16.1627L60.0259 15.8268C60.1822 16.6966 60.6666 17.1315 61.4791 17.1315C61.9114 17.1315 62.2343 17.0481 62.4478 16.8815C62.6614 16.7148 62.7681 16.4987 62.7681 16.233C62.7681 16.0507 62.7213 15.9075 62.6275 15.8033C62.5285 15.6992 62.3332 15.608 62.0416 15.5299C60.5624 15.1393 59.6223 14.7669 59.2213 14.4127C58.7213 13.97 58.4713 13.3632 58.4713 12.5924C58.4713 11.8216 58.716 11.2044 59.2056 10.7408C59.6952 10.2773 60.4061 10.0455 61.3384 10.0455C62.2291 10.0455 62.9061 10.22 63.3697 10.569C63.8332 10.9127 64.1588 11.47 64.3463 12.2408L62.6509 12.6237C62.4999 11.957 62.0728 11.6237 61.3697 11.6237C60.927 11.6237 60.6119 11.6888 60.4244 11.819C60.2369 11.944 60.1431 12.108 60.1431 12.3112C60.1431 12.4934 60.2291 12.6445 60.4009 12.7643C60.5728 12.8893 61.1067 13.0768 62.0025 13.3268C63.0077 13.608 63.69 13.9492 64.0494 14.3502C64.4035 14.7513 64.5806 15.2851 64.5806 15.9518C64.5806 16.7539 64.3046 17.4153 63.7525 17.9362C63.2056 18.457 62.4478 18.7174 61.4791 18.7174C60.5989 18.7174 59.8801 18.5013 59.3228 18.069C58.7655 17.6315 58.3983 16.9961 58.2213 16.1627ZM72.0806 12.6862L70.3072 13.0768C70.177 12.207 69.7681 11.7721 69.0806 11.7721C68.6379 11.7721 68.2811 11.9596 68.0103 12.3346C67.7395 12.7096 67.6041 13.3424 67.6041 14.233C67.6041 15.2174 67.7395 15.9127 68.0103 16.319C68.2811 16.7252 68.6431 16.9283 69.0963 16.9283C69.4348 16.9283 69.7134 16.8138 69.9322 16.5846C70.1509 16.3502 70.3072 15.9388 70.4009 15.3502L72.1744 15.7174C71.8098 17.7174 70.7603 18.7174 69.0259 18.7174C67.9166 18.7174 67.0936 18.2955 66.5572 17.4518C66.0207 16.608 65.7525 15.5924 65.7525 14.4049C65.7525 12.983 66.0546 11.9023 66.6588 11.1627C67.2681 10.4179 68.065 10.0455 69.0494 10.0455C69.8463 10.0455 70.4947 10.2565 70.9947 10.6783C71.4999 11.1002 71.8619 11.7695 72.0806 12.6862ZM75.2447 7.07678V11.2877C75.5311 10.8711 75.8463 10.5612 76.19 10.358C76.539 10.1497 76.9166 10.0455 77.3228 10.0455C77.8645 10.0455 78.3176 10.1888 78.6822 10.4752C79.0468 10.7617 79.3072 11.1679 79.4634 11.694C79.578 12.0794 79.6353 12.7356 79.6353 13.6627V18.5299H77.8384V14.1471C77.8384 13.1315 77.7733 12.4961 77.6431 12.2408C77.4608 11.8971 77.1509 11.7252 76.7134 11.7252C76.2499 11.7252 75.8879 11.9127 75.6275 12.2877C75.3723 12.6575 75.2447 13.3528 75.2447 14.3737V18.5299H73.44V7.07678H75.2447ZM85.4088 15.8893L87.1978 16.2565C86.9582 17.0898 86.5858 17.7096 86.0806 18.1158C85.5754 18.5169 84.9608 18.7174 84.2369 18.7174C83.2317 18.7174 82.4556 18.3815 81.9088 17.7096C81.2629 16.9283 80.94 15.8346 80.94 14.4283C80.94 13.0429 81.2655 11.9336 81.9166 11.1002C82.4686 10.3971 83.1822 10.0455 84.0572 10.0455C85.0311 10.0455 85.7942 10.4049 86.3463 11.1237C86.9817 11.9466 87.2994 13.1601 87.2994 14.7643L87.2916 15.0143H82.7838C82.7942 15.6705 82.94 16.1783 83.2213 16.5377C83.5077 16.8971 83.8515 17.0768 84.2525 17.0768C84.8306 17.0768 85.216 16.6809 85.4088 15.8893ZM85.5103 13.6705C85.4947 13.0247 85.3567 12.5403 85.0963 12.2174C84.8358 11.8893 84.5259 11.7252 84.1666 11.7252C83.7864 11.7252 83.466 11.8945 83.2056 12.233C82.94 12.5768 82.8098 13.0559 82.815 13.6705H85.5103ZM88.7603 18.5299V16.3346H90.565V18.5299H88.7603ZM98.3463 12.6862L96.5728 13.0768C96.4426 12.207 96.0338 11.7721 95.3463 11.7721C94.9035 11.7721 94.5468 11.9596 94.2759 12.3346C94.0051 12.7096 93.8697 13.3424 93.8697 14.233C93.8697 15.2174 94.0051 15.9127 94.2759 16.319C94.5468 16.7252 94.9088 16.9283 95.3619 16.9283C95.7004 16.9283 95.9791 16.8138 96.1978 16.5846C96.4166 16.3502 96.5728 15.9388 96.6666 15.3502L98.44 15.7174C98.0754 17.7174 97.0259 18.7174 95.2916 18.7174C94.1822 18.7174 93.3593 18.2955 92.8228 17.4518C92.2864 16.608 92.0181 15.5924 92.0181 14.4049C92.0181 12.983 92.3202 11.9023 92.9244 11.1627C93.5338 10.4179 94.3306 10.0455 95.315 10.0455C96.1119 10.0455 96.7603 10.2565 97.2603 10.6783C97.7655 11.1002 98.1275 11.7695 98.3463 12.6862ZM99.2916 14.2643C99.2916 13.4518 99.453 12.7122 99.7759 12.0455C100.099 11.3789 100.521 10.8789 101.042 10.5455C101.562 10.2122 102.148 10.0455 102.799 10.0455C103.893 10.0455 104.753 10.4752 105.378 11.3346C106.003 12.1888 106.315 13.1888 106.315 14.3346C106.315 15.1888 106.151 15.9596 105.823 16.6471C105.5 17.3346 105.073 17.8528 104.542 18.2018C104.016 18.5455 103.437 18.7174 102.807 18.7174C101.797 18.7174 100.958 18.332 100.292 17.5612C99.6249 16.7903 99.2916 15.6914 99.2916 14.2643ZM101.135 14.3815C101.135 15.22 101.299 15.8554 101.628 16.2877C101.956 16.7148 102.351 16.9283 102.815 16.9283C103.268 16.9283 103.656 16.7122 103.979 16.2799C104.302 15.8476 104.463 15.2096 104.463 14.3658C104.463 13.5429 104.299 12.9153 103.971 12.483C103.643 12.0507 103.25 11.8346 102.792 11.8346C102.338 11.8346 101.948 12.0507 101.62 12.483C101.297 12.9153 101.135 13.5481 101.135 14.3815ZM107.588 10.233H109.245V11.3658C109.542 10.9231 109.867 10.5924 110.221 10.3737C110.575 10.1549 110.958 10.0455 111.37 10.0455C111.807 10.0455 112.185 10.1549 112.503 10.3737C112.825 10.5924 113.088 10.9231 113.292 11.3658C113.594 10.9231 113.917 10.5924 114.26 10.3737C114.609 10.1549 114.979 10.0455 115.37 10.0455C115.833 10.0455 116.232 10.1575 116.565 10.3815C116.904 10.6002 117.159 10.9153 117.331 11.3268C117.508 11.7382 117.596 12.3711 117.596 13.2252V18.5299H115.792V13.7877C115.792 12.9596 115.719 12.4101 115.573 12.1393C115.427 11.8632 115.182 11.7252 114.838 11.7252C114.437 11.7252 114.114 11.9179 113.87 12.3033C113.625 12.6836 113.503 13.4309 113.503 14.5455V18.5299H111.698V13.983C111.698 13.082 111.648 12.5013 111.549 12.2408C111.419 11.8971 111.156 11.7252 110.76 11.7252C110.495 11.7252 110.25 11.8138 110.026 11.9908C109.802 12.1679 109.641 12.4283 109.542 12.7721C109.443 13.1106 109.393 13.6862 109.393 14.4987V18.5299H107.588V10.233ZM118.44 18.7252L120.768 6.88147H122.12L119.768 18.7252H118.44ZM122.885 19.0768L124.948 19.3815C124.979 19.6836 125.073 19.8971 125.229 20.0221C125.391 20.1523 125.643 20.2174 125.987 20.2174C126.383 20.2174 126.703 20.1523 126.948 20.0221C127.12 19.9283 127.253 19.7721 127.346 19.5533C127.44 19.3346 127.487 18.9492 127.487 18.3971V17.1862C127.216 17.6341 126.911 17.97 126.573 18.194C126.234 18.4179 125.859 18.5299 125.448 18.5299C124.693 18.5299 124.057 18.1888 123.542 17.5065C122.948 16.7252 122.651 15.6679 122.651 14.3346C122.651 12.9179 122.93 11.8502 123.487 11.1315C124.049 10.4075 124.729 10.0455 125.526 10.0455C125.948 10.0455 126.331 10.1575 126.674 10.3815C127.023 10.6054 127.333 10.944 127.604 11.3971V10.233H129.292V17.6783C129.292 18.8711 129.182 19.7356 128.963 20.2721C128.745 20.8086 128.406 21.2122 127.948 21.483C127.495 21.7591 126.864 21.8971 126.057 21.8971C125.312 21.8971 124.716 21.7981 124.268 21.6002C123.82 21.4023 123.476 21.1054 123.237 20.7096C123.003 20.319 122.885 19.8658 122.885 19.3502V19.0768ZM124.495 14.2096C124.495 15.095 124.635 15.7408 124.917 16.1471C125.203 16.5533 125.547 16.7565 125.948 16.7565C126.38 16.7565 126.75 16.5507 127.057 16.1393C127.364 15.7278 127.518 15.1028 127.518 14.2643C127.518 13.3997 127.37 12.7617 127.073 12.3502C126.781 11.9336 126.419 11.7252 125.987 11.7252C125.56 11.7252 125.203 11.9283 124.917 12.3346C124.635 12.7408 124.495 13.3658 124.495 14.2096ZM134.182 10.233V11.983H132.956V15.3268C132.956 16.0507 132.974 16.47 133.01 16.5846C133.083 16.7929 133.232 16.8971 133.456 16.8971C133.622 16.8971 133.862 16.8268 134.174 16.6862L134.331 18.3893C133.914 18.608 133.443 18.7174 132.917 18.7174C132.458 18.7174 132.091 18.608 131.815 18.3893C131.539 18.1705 131.354 17.8554 131.26 17.444C131.187 17.1419 131.151 16.5273 131.151 15.6002V11.983H130.323V10.233H131.151V8.58459L132.956 7.30334V10.233H134.182ZM137.174 18.5299H135.37V10.233H137.042V11.4127C137.328 10.8606 137.583 10.4961 137.807 10.319C138.036 10.1367 138.299 10.0455 138.596 10.0455C139.008 10.0455 139.401 10.1836 139.776 10.4596L139.213 12.3737C138.917 12.1341 138.635 12.0143 138.37 12.0143C138.12 12.0143 137.898 12.108 137.706 12.2955C137.518 12.4778 137.383 12.8112 137.299 13.2955C137.216 13.7799 137.174 14.6705 137.174 15.9674V18.5299ZM146.253 16.4908V18.5299H139.94C140.008 17.7591 140.213 17.0273 140.557 16.3346C140.906 15.6367 141.581 14.7226 142.581 13.5924C143.372 12.6914 143.859 12.082 144.042 11.7643C144.312 11.3007 144.448 10.8346 144.448 10.3658C144.448 9.86584 144.336 9.48824 144.112 9.23303C143.888 8.97782 143.594 8.85022 143.229 8.85022C142.432 8.85022 142.003 9.44657 141.94 10.6393L140.151 10.4205C140.26 9.25387 140.583 8.39709 141.12 7.85022C141.661 7.30334 142.38 7.02991 143.276 7.02991C144.26 7.02991 145.003 7.35022 145.503 7.99084C146.003 8.63147 146.253 9.36584 146.253 10.194C146.253 10.6627 146.187 11.1184 146.057 11.5612C145.932 11.9987 145.737 12.4414 145.471 12.8893C145.206 13.332 144.763 13.8997 144.143 14.5924C143.565 15.2434 143.198 15.6731 143.042 15.8815C142.891 16.0898 142.768 16.2929 142.674 16.4908H146.253ZM152.073 18.5299H150.276V10.2565C149.604 11.0117 148.828 11.5664 147.948 11.9205V9.92834C148.448 9.72522 148.966 9.36324 149.503 8.84241C150.039 8.31637 150.411 7.7122 150.62 7.02991H152.073V18.5299Z" fill="#6B6D70"/>
<path d="M2.94 20.8112H36.4869V21.983H2.94V20.8112ZM40.6353 20.8112H122.135V21.983H40.6353V20.8112ZM129.846 20.8112H154.206V21.983H129.846V20.8112Z" fill="#6B6D70"/>
</svg>
