<svg width="24" height="25" viewBox="0 0 24 25" fill="none" xmlns="http://www.w3.org/2000/svg">
<g clip-path="url(#clip0_1_477)">
<g clip-path="url(#clip1_1_477)">
<path d="M12 6C15.5 6 14.92 9.85 14.92 9.85L15.45 10.07C15.47 10.11 15.5 11.5 15.28 11.88L15.16 12.15C14.5 15.5 13 16 12 16C11 16 9.5 15.5 8.84 12.15L8.73 11.89C8.55861 11.2996 8.49759 10.6826 8.55 10.07L9.08 9.85C9.08 9.85 8.5 6 12 6ZM12 5C7.86 5 8.08 8.8 8.08 9.19C8.08 9.19 7.5 9.43 7.5 10.34V11.28C7.5 11.82 7.88 12.42 7.88 12.42C7.88 12.42 8.5 17 12 17C15.5 17 16.12 12.42 16.12 12.42C16.12 12.42 16.5 11.82 16.5 11.28V10.34C16.5 9.44 15.92 9.19 15.92 9.19C15.92 8.79 16.14 5 12 5ZM15.06 16.68C14.41 17.57 13.2 18.02 12 18.02C10.8 18.02 9.59 17.57 8.94 16.68C6 18 3.5 18.5 3.5 20.5H4.5C4.5 19.5 7.2 18.48 8.68 17.86C9.60968 18.6359 10.7894 19.0481 12 19.02C13.3 19.02 14.5 18.59 15.32 17.86C16.78 18.46 19.5 19.5 19.5 20.5H20.5C20.5 19 18 18 15.06 16.68Z" fill="#F2F2F2"/>
</g>
</g>
<defs>
<clipPath id="clip0_1_477">
<rect width="24" height="24" fill="white" transform="translate(0 0.5)"/>
</clipPath>
<clipPath id="clip1_1_477">
<rect width="24" height="24" fill="white" transform="translate(0 0.5)"/>
</clipPath>
</defs>
</svg>
