<svg width="240" height="17" viewBox="0 0 240 17" fill="none" xmlns="http://www.w3.org/2000/svg">
<path d="M26.7733 12.2867C29.3387 12.2867 30.72 10.9053 30.72 8.34V4.44667C30.72 1.88133 29.3387 0.5 26.7733 0.5H0V16.5H3.62667V12.2867H26.7733ZM27.0933 4.66V8.12667C27.0933 8.54267 26.8693 8.76667 26.4533 8.76667H3.62667V4.02H26.4533C26.8693 4.02 27.0933 4.244 27.0933 4.66ZM39.2533 16.5C36.688 16.5 35.3067 15.1187 35.3067 12.5533V4.44667C35.3067 1.88133 36.688 0.5 39.2533 0.5H61.4933C64.0587 0.5 65.44 1.88133 65.44 4.44667V12.5533C65.44 15.1187 64.0587 16.5 61.4933 16.5H39.2533ZM61.1733 12.98C61.5893 12.98 61.8133 12.756 61.8133 12.34V4.66C61.8133 4.244 61.5893 4.02 61.1733 4.02H39.5733C39.1573 4.02 38.9333 4.244 38.9333 4.66V12.34C38.9333 12.756 39.1573 12.98 39.5733 12.98H61.1733ZM97.1733 11.06C99.2983 11.9537 100.792 14.052 100.8 16.5H97.1733C97.1733 13.62 95.84 12.2867 92.96 12.2867H73.7067V16.5H70.08V0.5H96.8533C99.4187 0.5 100.8 1.88133 100.8 4.44667V7.1208C100.8 9.57733 99.5333 10.948 97.1733 11.06ZM96.5333 8.76667C96.9493 8.76667 97.1733 8.54267 97.1733 8.12667V4.66C97.1733 4.244 96.9493 4.02 96.5333 4.02H73.7067V8.76667H96.5333ZM105.173 4.44667C105.173 1.88133 106.555 0.5 109.12 0.5H135.36V3.48667H109.44C109.024 3.48667 108.8 3.71067 108.8 4.12667V6.36667C108.8 6.78267 109.024 7.00667 109.44 7.00667H131.947C134.512 7.00667 135.893 8.388 135.893 10.9533V12.5533C135.893 15.1187 134.512 16.5 131.947 16.5H105.707V13.5133H131.627C132.043 13.5133 132.267 13.2893 132.267 12.8733V10.6333C132.267 10.2173 132.043 9.99333 131.627 9.99333H109.12C106.555 9.99333 105.173 8.612 105.173 6.04667V4.44667ZM140.427 4.44667C140.427 1.88133 141.808 0.5 144.373 0.5H169.973V4.02H144.693C144.277 4.02 144.053 4.244 144.053 4.66V12.34C144.053 12.756 144.277 12.98 144.693 12.98H169.973V16.5H144.373C141.808 16.5 140.427 15.1187 140.427 12.5533V4.44667ZM203.573 0.5V16.5H199.947V10.26H178.24V16.5H174.613V0.5H178.24V6.74H199.947V0.5H203.573ZM211.893 3.48667V7.00667H240V9.99333H211.893V13.5133H240V16.5H208.267V0.5H240V3.48667H211.893Z" fill="#FBFCFF"/>
</svg>
